<mxfile host="app.diagrams.net" agent="Mozilla/5.0 (X11; Linux x86_64) AppleWebKit/537.36 (KHTML, like Gecko) Chrome/138.0.0.0 Safari/537.36" version="28.0.4" pages="2">
  <diagram name="Page-1" id="a-QbNL53LZuU4Wbns2kw">
    <mxGraphModel dx="10730" dy="10995" grid="1" gridSize="10" guides="1" tooltips="1" connect="1" arrows="1" fold="1" page="1" pageScale="1" pageWidth="1200" pageHeight="1600" math="0" shadow="0">
      <root>
        <mxCell id="0" />
        <mxCell id="1" parent="0" />
        <mxCell id="p8tNbYULgPMOV_2-hKJk-1" value="&lt;font style=&quot;font-size: 30px;&quot;&gt;TheRedJungle-Overview&lt;/font&gt;" style="rounded=1;whiteSpace=wrap;html=1;" parent="1" vertex="1">
          <mxGeometry x="775" y="-4910" width="600" height="120" as="geometry" />
        </mxCell>
        <mxCell id="p8tNbYULgPMOV_2-hKJk-2" value="&lt;font style=&quot;font-size: 20px;&quot;&gt;Domain_Controller and DNS&lt;/font&gt;" style="rounded=0;whiteSpace=wrap;html=1;" parent="1" vertex="1">
          <mxGeometry x="-1530" y="290" width="370" height="80" as="geometry" />
        </mxCell>
        <mxCell id="p8tNbYULgPMOV_2-hKJk-3" value="&lt;font style=&quot;font-size: 20px;&quot;&gt;Centralised_Logging&lt;/font&gt;" style="rounded=0;whiteSpace=wrap;html=1;" parent="1" vertex="1">
          <mxGeometry x="-1500" y="950" width="370" height="90" as="geometry" />
        </mxCell>
        <mxCell id="BvD41wCdSYZ7Jo7oAfta-6" style="edgeStyle=orthogonalEdgeStyle;rounded=0;orthogonalLoop=1;jettySize=auto;html=1;exitX=0;exitY=0;exitDx=0;exitDy=0;" parent="1" source="p8tNbYULgPMOV_2-hKJk-4" edge="1">
          <mxGeometry relative="1" as="geometry">
            <mxPoint x="-2070" y="1520" as="targetPoint" />
            <Array as="points">
              <mxPoint x="-1480" y="1520" />
            </Array>
          </mxGeometry>
        </mxCell>
        <mxCell id="p8tNbYULgPMOV_2-hKJk-4" value="&lt;font style=&quot;font-size: 20px;&quot;&gt;CRM_System&lt;/font&gt;" style="rounded=0;whiteSpace=wrap;html=1;" parent="1" vertex="1">
          <mxGeometry x="-1480" y="1610" width="370" height="90" as="geometry" />
        </mxCell>
        <mxCell id="p8tNbYULgPMOV_2-hKJk-5" value="&lt;font style=&quot;font-size: 20px;&quot;&gt;Access_Control_Server&lt;/font&gt;" style="rounded=0;whiteSpace=wrap;html=1;" parent="1" vertex="1">
          <mxGeometry x="-1460" y="2250" width="370" height="90" as="geometry" />
        </mxCell>
        <mxCell id="BvD41wCdSYZ7Jo7oAfta-31" style="edgeStyle=orthogonalEdgeStyle;rounded=0;orthogonalLoop=1;jettySize=auto;html=1;exitX=0.25;exitY=0;exitDx=0;exitDy=0;" parent="1" source="p8tNbYULgPMOV_2-hKJk-7" edge="1">
          <mxGeometry relative="1" as="geometry">
            <mxPoint x="-208" y="-530" as="targetPoint" />
          </mxGeometry>
        </mxCell>
        <mxCell id="BvD41wCdSYZ7Jo7oAfta-32" style="edgeStyle=orthogonalEdgeStyle;rounded=0;orthogonalLoop=1;jettySize=auto;html=1;exitX=1;exitY=1;exitDx=0;exitDy=0;entryX=1;entryY=0;entryDx=0;entryDy=0;" parent="1" source="p8tNbYULgPMOV_2-hKJk-7" target="p8tNbYULgPMOV_2-hKJk-20" edge="1">
          <mxGeometry relative="1" as="geometry">
            <mxPoint x="4404" y="920" as="targetPoint" />
            <Array as="points">
              <mxPoint x="231" y="330" />
              <mxPoint x="231" y="3000" />
              <mxPoint x="4400" y="3000" />
              <mxPoint x="4400" y="890" />
            </Array>
          </mxGeometry>
        </mxCell>
        <mxCell id="BvD41wCdSYZ7Jo7oAfta-56" style="edgeStyle=orthogonalEdgeStyle;rounded=0;orthogonalLoop=1;jettySize=auto;html=1;exitX=1;exitY=0;exitDx=0;exitDy=0;entryX=0.5;entryY=1;entryDx=0;entryDy=0;" parent="1" source="p8tNbYULgPMOV_2-hKJk-7" target="BvD41wCdSYZ7Jo7oAfta-50" edge="1">
          <mxGeometry relative="1" as="geometry">
            <mxPoint x="2610" y="-770" as="targetPoint" />
            <Array as="points">
              <mxPoint x="390" y="240" />
              <mxPoint x="390" y="-770" />
              <mxPoint x="2670" y="-770" />
            </Array>
          </mxGeometry>
        </mxCell>
        <mxCell id="Gq6xyrAA6HJIPoT7wWtw-1" style="edgeStyle=orthogonalEdgeStyle;rounded=0;orthogonalLoop=1;jettySize=auto;html=1;exitX=0.75;exitY=0;exitDx=0;exitDy=0;entryX=0;entryY=0.5;entryDx=0;entryDy=0;" edge="1" parent="1" source="p8tNbYULgPMOV_2-hKJk-7" target="p8tNbYULgPMOV_2-hKJk-5">
          <mxGeometry relative="1" as="geometry">
            <mxPoint x="-2250" y="-655.7142857142857" as="targetPoint" />
            <Array as="points">
              <mxPoint x="-23" y="-207" />
              <mxPoint x="-2510" y="-207" />
              <mxPoint x="-2510" y="2295" />
            </Array>
          </mxGeometry>
        </mxCell>
        <mxCell id="p8tNbYULgPMOV_2-hKJk-7" value="&lt;font style=&quot;font-size: 20px;&quot;&gt;Application_server&lt;/font&gt;" style="rounded=0;whiteSpace=wrap;html=1;" parent="1" vertex="1">
          <mxGeometry x="-300" y="240" width="370" height="90" as="geometry" />
        </mxCell>
        <mxCell id="BvD41wCdSYZ7Jo7oAfta-5" style="edgeStyle=orthogonalEdgeStyle;rounded=0;orthogonalLoop=1;jettySize=auto;html=1;exitX=0;exitY=0;exitDx=0;exitDy=0;" parent="1" source="p8tNbYULgPMOV_2-hKJk-8" edge="1">
          <mxGeometry relative="1" as="geometry">
            <mxPoint x="-2070" y="740" as="targetPoint" />
            <mxPoint x="-290" y="930" as="sourcePoint" />
            <Array as="points">
              <mxPoint x="-290" y="740" />
            </Array>
          </mxGeometry>
        </mxCell>
        <mxCell id="p8tNbYULgPMOV_2-hKJk-8" value="&lt;font style=&quot;font-size: 20px;&quot;&gt;File_server&lt;/font&gt;" style="rounded=0;whiteSpace=wrap;html=1;" parent="1" vertex="1">
          <mxGeometry x="-290" y="940" width="370" height="90" as="geometry" />
        </mxCell>
        <mxCell id="BvD41wCdSYZ7Jo7oAfta-15" style="edgeStyle=orthogonalEdgeStyle;rounded=0;orthogonalLoop=1;jettySize=auto;html=1;exitX=0;exitY=0;exitDx=0;exitDy=0;entryX=1;entryY=0;entryDx=0;entryDy=0;" parent="1" source="p8tNbYULgPMOV_2-hKJk-9" target="p8tNbYULgPMOV_2-hKJk-2" edge="1">
          <mxGeometry relative="1" as="geometry">
            <mxPoint x="-1160" y="290" as="targetPoint" />
            <Array as="points">
              <mxPoint x="-560" y="1600" />
              <mxPoint x="-560" y="290" />
            </Array>
          </mxGeometry>
        </mxCell>
        <mxCell id="Gq6xyrAA6HJIPoT7wWtw-4" style="edgeStyle=orthogonalEdgeStyle;rounded=0;orthogonalLoop=1;jettySize=auto;html=1;exitX=0.5;exitY=1;exitDx=0;exitDy=0;entryX=0;entryY=0.5;entryDx=0;entryDy=0;" edge="1" parent="1" source="p8tNbYULgPMOV_2-hKJk-9" target="p8tNbYULgPMOV_2-hKJk-5">
          <mxGeometry relative="1" as="geometry">
            <mxPoint x="-1589.999999999999" y="2240" as="targetPoint" />
            <Array as="points">
              <mxPoint x="-95" y="1960" />
              <mxPoint x="-1650" y="1960" />
              <mxPoint x="-1650" y="2295" />
            </Array>
          </mxGeometry>
        </mxCell>
        <mxCell id="p8tNbYULgPMOV_2-hKJk-9" value="&lt;font style=&quot;font-size: 20px;&quot;&gt;HR_Finance_server&lt;/font&gt;" style="rounded=0;whiteSpace=wrap;html=1;" parent="1" vertex="1">
          <mxGeometry x="-280" y="1600" width="370" height="90" as="geometry" />
        </mxCell>
        <mxCell id="p8tNbYULgPMOV_2-hKJk-10" value="&lt;font style=&quot;font-size: 20px;&quot;&gt;Payment_Gateway&lt;/font&gt;" style="rounded=0;whiteSpace=wrap;html=1;" parent="1" vertex="1">
          <mxGeometry x="-250" y="2240" width="370" height="90" as="geometry" />
        </mxCell>
        <mxCell id="Gq6xyrAA6HJIPoT7wWtw-2" style="edgeStyle=orthogonalEdgeStyle;rounded=0;orthogonalLoop=1;jettySize=auto;html=1;exitX=0.5;exitY=0;exitDx=0;exitDy=0;entryX=0;entryY=0.5;entryDx=0;entryDy=0;" edge="1" parent="1" source="p8tNbYULgPMOV_2-hKJk-11" target="p8tNbYULgPMOV_2-hKJk-5">
          <mxGeometry relative="1" as="geometry">
            <mxPoint x="-2820" y="-200" as="targetPoint" />
            <Array as="points">
              <mxPoint x="1025" y="-209" />
              <mxPoint x="-2510" y="-209" />
              <mxPoint x="-2510" y="2295" />
            </Array>
          </mxGeometry>
        </mxCell>
        <mxCell id="p8tNbYULgPMOV_2-hKJk-11" value="&lt;span style=&quot;font-size: 20px; background-color: transparent; color: light-dark(rgb(0, 0, 0), rgb(255, 255, 255));&quot;&gt;VoIP_System&lt;/span&gt;" style="rounded=0;whiteSpace=wrap;html=1;" parent="1" vertex="1">
          <mxGeometry x="840" y="210" width="370" height="90" as="geometry" />
        </mxCell>
        <mxCell id="BvD41wCdSYZ7Jo7oAfta-12" style="edgeStyle=orthogonalEdgeStyle;rounded=0;orthogonalLoop=1;jettySize=auto;html=1;exitX=0;exitY=1;exitDx=0;exitDy=0;entryX=1;entryY=0;entryDx=0;entryDy=0;" parent="1" source="p8tNbYULgPMOV_2-hKJk-12" target="p8tNbYULgPMOV_2-hKJk-18" edge="1">
          <mxGeometry relative="1" as="geometry">
            <mxPoint x="2510" y="800" as="targetPoint" />
            <Array as="points">
              <mxPoint x="3221" y="240" />
              <mxPoint x="3221" y="890" />
            </Array>
          </mxGeometry>
        </mxCell>
        <mxCell id="BvD41wCdSYZ7Jo7oAfta-28" style="edgeStyle=orthogonalEdgeStyle;rounded=0;orthogonalLoop=1;jettySize=auto;html=1;exitX=1;exitY=1;exitDx=0;exitDy=0;entryX=1;entryY=0;entryDx=0;entryDy=0;" parent="1" source="p8tNbYULgPMOV_2-hKJk-12" target="p8tNbYULgPMOV_2-hKJk-20" edge="1">
          <mxGeometry relative="1" as="geometry">
            <Array as="points">
              <mxPoint x="4400" y="240" />
              <mxPoint x="4400" y="890" />
            </Array>
          </mxGeometry>
        </mxCell>
        <mxCell id="BvD41wCdSYZ7Jo7oAfta-29" style="edgeStyle=orthogonalEdgeStyle;rounded=0;orthogonalLoop=1;jettySize=auto;html=1;exitX=1;exitY=0;exitDx=0;exitDy=0;entryX=0.5;entryY=0;entryDx=0;entryDy=0;" parent="1" source="p8tNbYULgPMOV_2-hKJk-12" target="p8tNbYULgPMOV_2-hKJk-2" edge="1">
          <mxGeometry relative="1" as="geometry">
            <mxPoint x="390" y="-490" as="targetPoint" />
            <Array as="points">
              <mxPoint x="3880" y="-540" />
              <mxPoint x="-1345" y="-540" />
            </Array>
          </mxGeometry>
        </mxCell>
        <mxCell id="p8tNbYULgPMOV_2-hKJk-12" value="&lt;font style=&quot;font-size: 20px;&quot;&gt;BMS_Backend_Energy_Management_Units&lt;/font&gt;" style="rounded=0;whiteSpace=wrap;html=1;" parent="1" vertex="1">
          <mxGeometry x="3380" y="150" width="500" height="90" as="geometry" />
        </mxCell>
        <mxCell id="BvD41wCdSYZ7Jo7oAfta-7" style="edgeStyle=orthogonalEdgeStyle;rounded=0;orthogonalLoop=1;jettySize=auto;html=1;exitX=0;exitY=0;exitDx=0;exitDy=0;" parent="1" source="p8tNbYULgPMOV_2-hKJk-13" edge="1">
          <mxGeometry relative="1" as="geometry">
            <mxPoint x="-2070" y="740" as="targetPoint" />
            <Array as="points">
              <mxPoint x="830" y="740" />
            </Array>
          </mxGeometry>
        </mxCell>
        <mxCell id="BvD41wCdSYZ7Jo7oAfta-14" style="edgeStyle=orthogonalEdgeStyle;rounded=0;orthogonalLoop=1;jettySize=auto;html=1;exitX=0.25;exitY=0;exitDx=0;exitDy=0;" parent="1" source="p8tNbYULgPMOV_2-hKJk-13" edge="1">
          <mxGeometry relative="1" as="geometry">
            <mxPoint x="1480" y="-50" as="targetPoint" />
            <Array as="points">
              <mxPoint x="923" y="740" />
              <mxPoint x="1480" y="740" />
            </Array>
          </mxGeometry>
        </mxCell>
        <mxCell id="p8tNbYULgPMOV_2-hKJk-13" value="&lt;font style=&quot;font-size: 20px;&quot;&gt;VMS_System&lt;/font&gt;" style="rounded=0;whiteSpace=wrap;html=1;" parent="1" vertex="1">
          <mxGeometry x="830" y="930" width="370" height="90" as="geometry" />
        </mxCell>
        <mxCell id="BvD41wCdSYZ7Jo7oAfta-13" style="edgeStyle=orthogonalEdgeStyle;rounded=0;orthogonalLoop=1;jettySize=auto;html=1;exitX=1;exitY=0;exitDx=0;exitDy=0;entryX=1;entryY=0;entryDx=0;entryDy=0;" parent="1" source="p8tNbYULgPMOV_2-hKJk-14" target="p8tNbYULgPMOV_2-hKJk-2" edge="1">
          <mxGeometry relative="1" as="geometry">
            <mxPoint x="4040" y="-130" as="targetPoint" />
            <Array as="points">
              <mxPoint x="4160" y="1555" />
              <mxPoint x="4160" y="-60" />
              <mxPoint x="-560" y="-60" />
              <mxPoint x="-560" y="290" />
            </Array>
          </mxGeometry>
        </mxCell>
        <mxCell id="BvD41wCdSYZ7Jo7oAfta-25" style="edgeStyle=orthogonalEdgeStyle;rounded=0;orthogonalLoop=1;jettySize=auto;html=1;exitX=1;exitY=0.25;exitDx=0;exitDy=0;entryX=1;entryY=1;entryDx=0;entryDy=0;" parent="1" source="p8tNbYULgPMOV_2-hKJk-14" target="p8tNbYULgPMOV_2-hKJk-10" edge="1">
          <mxGeometry relative="1" as="geometry">
            <mxPoint x="4160" y="3151.6666666666665" as="targetPoint" />
            <Array as="points">
              <mxPoint x="4161" y="1575" />
              <mxPoint x="4161" y="2740" />
              <mxPoint x="120" y="2740" />
            </Array>
          </mxGeometry>
        </mxCell>
        <mxCell id="Gq6xyrAA6HJIPoT7wWtw-8" style="edgeStyle=orthogonalEdgeStyle;rounded=0;orthogonalLoop=1;jettySize=auto;html=1;exitX=0.5;exitY=1;exitDx=0;exitDy=0;entryX=0;entryY=0.5;entryDx=0;entryDy=0;" edge="1" parent="1" source="p8tNbYULgPMOV_2-hKJk-14" target="p8tNbYULgPMOV_2-hKJk-5">
          <mxGeometry relative="1" as="geometry">
            <Array as="points">
              <mxPoint x="3630" y="1960" />
              <mxPoint x="-1650" y="1960" />
              <mxPoint x="-1650" y="2295" />
            </Array>
          </mxGeometry>
        </mxCell>
        <mxCell id="p8tNbYULgPMOV_2-hKJk-14" value="&lt;font style=&quot;font-size: 20px;&quot;&gt;Staff_Admin_POS_Terminal_BMW_Workstation&lt;/font&gt;" style="rounded=0;whiteSpace=wrap;html=1;" parent="1" vertex="1">
          <mxGeometry x="3350" y="1555" width="560" height="80" as="geometry" />
        </mxCell>
        <mxCell id="BvD41wCdSYZ7Jo7oAfta-4" style="edgeStyle=orthogonalEdgeStyle;rounded=0;orthogonalLoop=1;jettySize=auto;html=1;exitX=1;exitY=1;exitDx=0;exitDy=0;" parent="1" source="p8tNbYULgPMOV_2-hKJk-15" edge="1">
          <mxGeometry relative="1" as="geometry">
            <mxPoint x="-300" y="230" as="targetPoint" />
            <mxPoint x="1325" y="2310" as="sourcePoint" />
            <Array as="points">
              <mxPoint x="1325" y="2320" />
              <mxPoint x="1325" y="2620" />
              <mxPoint x="-2083" y="2620" />
              <mxPoint x="-2083" y="120" />
              <mxPoint x="-300" y="120" />
            </Array>
          </mxGeometry>
        </mxCell>
        <mxCell id="BvD41wCdSYZ7Jo7oAfta-34" style="edgeStyle=orthogonalEdgeStyle;rounded=0;orthogonalLoop=1;jettySize=auto;html=1;exitX=0.75;exitY=1;exitDx=0;exitDy=0;" parent="1" source="p8tNbYULgPMOV_2-hKJk-15" edge="1">
          <mxGeometry relative="1" as="geometry">
            <mxPoint x="1138" y="3000" as="targetPoint" />
          </mxGeometry>
        </mxCell>
        <mxCell id="p8tNbYULgPMOV_2-hKJk-15" value="&lt;span style=&quot;font-size: 20px;&quot;&gt;Single_PoP_CDN&lt;/span&gt;" style="rounded=0;whiteSpace=wrap;html=1;" parent="1" vertex="1">
          <mxGeometry x="860" y="2230" width="370" height="90" as="geometry" />
        </mxCell>
        <mxCell id="BvD41wCdSYZ7Jo7oAfta-9" style="edgeStyle=orthogonalEdgeStyle;rounded=0;orthogonalLoop=1;jettySize=auto;html=1;exitX=0;exitY=1;exitDx=0;exitDy=0;" parent="1" source="p8tNbYULgPMOV_2-hKJk-16" edge="1">
          <mxGeometry relative="1" as="geometry">
            <mxPoint x="1340" y="2430" as="targetPoint" />
            <Array as="points">
              <mxPoint x="2190" y="2430" />
            </Array>
          </mxGeometry>
        </mxCell>
        <mxCell id="Gq6xyrAA6HJIPoT7wWtw-6" style="edgeStyle=orthogonalEdgeStyle;rounded=0;orthogonalLoop=1;jettySize=auto;html=1;exitX=0.5;exitY=0;exitDx=0;exitDy=0;entryX=0;entryY=0.5;entryDx=0;entryDy=0;" edge="1" parent="1" source="p8tNbYULgPMOV_2-hKJk-16" target="p8tNbYULgPMOV_2-hKJk-5">
          <mxGeometry relative="1" as="geometry">
            <mxPoint x="-1712.857142857142" y="1930" as="targetPoint" />
            <Array as="points">
              <mxPoint x="2375" y="1960" />
              <mxPoint x="-1650" y="1960" />
              <mxPoint x="-1650" y="2295" />
            </Array>
          </mxGeometry>
        </mxCell>
        <mxCell id="p8tNbYULgPMOV_2-hKJk-16" value="&lt;span style=&quot;font-size: 20px; background-color: transparent; color: light-dark(rgb(0, 0, 0), rgb(255, 255, 255));&quot;&gt;Email_Gateway&lt;/span&gt;" style="rounded=0;whiteSpace=wrap;html=1;" parent="1" vertex="1">
          <mxGeometry x="2190" y="2230" width="370" height="90" as="geometry" />
        </mxCell>
        <mxCell id="BvD41wCdSYZ7Jo7oAfta-11" style="edgeStyle=orthogonalEdgeStyle;rounded=0;orthogonalLoop=1;jettySize=auto;html=1;exitX=0;exitY=1;exitDx=0;exitDy=0;" parent="1" source="p8tNbYULgPMOV_2-hKJk-17" edge="1">
          <mxGeometry relative="1" as="geometry">
            <mxPoint x="1340" y="2430" as="targetPoint" />
            <Array as="points">
              <mxPoint x="1941" y="260" />
              <mxPoint x="1941" y="2430" />
            </Array>
          </mxGeometry>
        </mxCell>
        <mxCell id="BvD41wCdSYZ7Jo7oAfta-35" style="edgeStyle=orthogonalEdgeStyle;rounded=0;orthogonalLoop=1;jettySize=auto;html=1;exitX=1;exitY=0;exitDx=0;exitDy=0;" parent="1" source="p8tNbYULgPMOV_2-hKJk-17" edge="1">
          <mxGeometry relative="1" as="geometry">
            <mxPoint x="3810" y="890" as="targetPoint" />
            <Array as="points">
              <mxPoint x="2490" y="-340" />
              <mxPoint x="4740" y="-340" />
            </Array>
          </mxGeometry>
        </mxCell>
        <mxCell id="Gq6xyrAA6HJIPoT7wWtw-5" style="edgeStyle=orthogonalEdgeStyle;rounded=0;orthogonalLoop=1;jettySize=auto;html=1;exitX=0.5;exitY=0;exitDx=0;exitDy=0;entryX=0;entryY=0.5;entryDx=0;entryDy=0;" edge="1" parent="1" source="p8tNbYULgPMOV_2-hKJk-17" target="p8tNbYULgPMOV_2-hKJk-5">
          <mxGeometry relative="1" as="geometry">
            <mxPoint x="-2950" y="300" as="targetPoint" />
            <Array as="points">
              <mxPoint x="2305" y="-209" />
              <mxPoint x="-2510" y="-209" />
              <mxPoint x="-2510" y="2295" />
            </Array>
          </mxGeometry>
        </mxCell>
        <mxCell id="p8tNbYULgPMOV_2-hKJk-17" value="&lt;font style=&quot;font-size: 20px;&quot;&gt;GRMS&lt;/font&gt;" style="rounded=0;whiteSpace=wrap;html=1;" parent="1" vertex="1">
          <mxGeometry x="2120" y="170" width="370" height="90" as="geometry" />
        </mxCell>
        <mxCell id="Gq6xyrAA6HJIPoT7wWtw-7" style="edgeStyle=orthogonalEdgeStyle;rounded=0;orthogonalLoop=1;jettySize=auto;html=1;exitX=0;exitY=0.5;exitDx=0;exitDy=0;entryX=0;entryY=0.5;entryDx=0;entryDy=0;" edge="1" parent="1" source="p8tNbYULgPMOV_2-hKJk-18" target="p8tNbYULgPMOV_2-hKJk-5">
          <mxGeometry relative="1" as="geometry">
            <mxPoint x="1810" y="1892.857142857143" as="targetPoint" />
            <Array as="points">
              <mxPoint x="1770" y="935" />
              <mxPoint x="1770" y="1960" />
              <mxPoint x="-1650" y="1960" />
              <mxPoint x="-1650" y="2295" />
            </Array>
          </mxGeometry>
        </mxCell>
        <mxCell id="p8tNbYULgPMOV_2-hKJk-18" value="&lt;span style=&quot;font-size: 20px;&quot;&gt;IoT_Device_Simulation&lt;/span&gt;" style="rounded=0;whiteSpace=wrap;html=1;" parent="1" vertex="1">
          <mxGeometry x="2120" y="890" width="370" height="90" as="geometry" />
        </mxCell>
        <mxCell id="BvD41wCdSYZ7Jo7oAfta-8" style="edgeStyle=orthogonalEdgeStyle;rounded=0;orthogonalLoop=1;jettySize=auto;html=1;exitX=0;exitY=1;exitDx=0;exitDy=0;" parent="1" source="p8tNbYULgPMOV_2-hKJk-19" edge="1">
          <mxGeometry relative="1" as="geometry">
            <mxPoint x="1330" y="2430" as="targetPoint" />
            <Array as="points">
              <mxPoint x="1940" y="1620" />
              <mxPoint x="1940" y="2430" />
            </Array>
          </mxGeometry>
        </mxCell>
        <mxCell id="p8tNbYULgPMOV_2-hKJk-19" value="&lt;font style=&quot;font-size: 20px;&quot;&gt;Web_server&lt;/font&gt;" style="rounded=0;whiteSpace=wrap;html=1;" parent="1" vertex="1">
          <mxGeometry x="2140" y="1530" width="370" height="90" as="geometry" />
        </mxCell>
        <mxCell id="BvD41wCdSYZ7Jo7oAfta-26" style="edgeStyle=orthogonalEdgeStyle;rounded=0;orthogonalLoop=1;jettySize=auto;html=1;exitX=1;exitY=0;exitDx=0;exitDy=0;entryX=0.75;entryY=0;entryDx=0;entryDy=0;" parent="1" source="p8tNbYULgPMOV_2-hKJk-20" target="p8tNbYULgPMOV_2-hKJk-2" edge="1">
          <mxGeometry relative="1" as="geometry">
            <mxPoint x="-1250" y="-340" as="targetPoint" />
            <Array as="points">
              <mxPoint x="4400" y="890" />
              <mxPoint x="4400" y="-340" />
              <mxPoint x="-1252" y="-340" />
            </Array>
          </mxGeometry>
        </mxCell>
        <mxCell id="p8tNbYULgPMOV_2-hKJk-20" value="&lt;font style=&quot;font-size: 20px;&quot;&gt;DHCP_Firewall_server&lt;/font&gt;" style="rounded=0;whiteSpace=wrap;html=1;" parent="1" vertex="1">
          <mxGeometry x="3430" y="890" width="370" height="90" as="geometry" />
        </mxCell>
        <mxCell id="Gq6xyrAA6HJIPoT7wWtw-3" style="edgeStyle=orthogonalEdgeStyle;rounded=0;orthogonalLoop=1;jettySize=auto;html=1;exitX=0.5;exitY=1;exitDx=0;exitDy=0;entryX=0;entryY=0.5;entryDx=0;entryDy=0;" edge="1" parent="1" source="p8tNbYULgPMOV_2-hKJk-21" target="p8tNbYULgPMOV_2-hKJk-5">
          <mxGeometry relative="1" as="geometry">
            <Array as="points">
              <mxPoint x="1045" y="1960" />
              <mxPoint x="-1650" y="1960" />
              <mxPoint x="-1650" y="2295" />
            </Array>
          </mxGeometry>
        </mxCell>
        <mxCell id="p8tNbYULgPMOV_2-hKJk-21" value="&lt;span style=&quot;font-size: 20px; background-color: transparent; color: light-dark(rgb(0, 0, 0), rgb(255, 255, 255));&quot;&gt;VPN_Concentrator&lt;/span&gt;" style="rounded=0;whiteSpace=wrap;html=1;" parent="1" vertex="1">
          <mxGeometry x="860" y="1550" width="370" height="90" as="geometry" />
        </mxCell>
        <mxCell id="p8tNbYULgPMOV_2-hKJk-22" value="&lt;font style=&quot;font-size: 20px;&quot;&gt;VM1 :KaliLinux&lt;/font&gt;" style="rounded=0;whiteSpace=wrap;html=1;" parent="1" vertex="1">
          <mxGeometry x="-240" y="-2370" width="370" height="80" as="geometry" />
        </mxCell>
        <mxCell id="BvD41wCdSYZ7Jo7oAfta-52" style="edgeStyle=orthogonalEdgeStyle;rounded=0;orthogonalLoop=1;jettySize=auto;html=1;exitX=0.5;exitY=1;exitDx=0;exitDy=0;entryX=0.5;entryY=0;entryDx=0;entryDy=0;" parent="1" source="p8tNbYULgPMOV_2-hKJk-23" target="BvD41wCdSYZ7Jo7oAfta-48" edge="1">
          <mxGeometry relative="1" as="geometry" />
        </mxCell>
        <mxCell id="BvD41wCdSYZ7Jo7oAfta-53" style="edgeStyle=orthogonalEdgeStyle;rounded=0;orthogonalLoop=1;jettySize=auto;html=1;exitX=0.5;exitY=1;exitDx=0;exitDy=0;entryX=0.5;entryY=0;entryDx=0;entryDy=0;" parent="1" source="p8tNbYULgPMOV_2-hKJk-23" target="BvD41wCdSYZ7Jo7oAfta-49" edge="1">
          <mxGeometry relative="1" as="geometry" />
        </mxCell>
        <mxCell id="BvD41wCdSYZ7Jo7oAfta-54" style="edgeStyle=orthogonalEdgeStyle;rounded=0;orthogonalLoop=1;jettySize=auto;html=1;exitX=0.5;exitY=1;exitDx=0;exitDy=0;entryX=0.5;entryY=0;entryDx=0;entryDy=0;" parent="1" source="p8tNbYULgPMOV_2-hKJk-23" target="BvD41wCdSYZ7Jo7oAfta-50" edge="1">
          <mxGeometry relative="1" as="geometry" />
        </mxCell>
        <mxCell id="p8tNbYULgPMOV_2-hKJk-23" value="&lt;font style=&quot;font-size: 20px;&quot;&gt;VM2 :OPNsense&lt;/font&gt;" style="rounded=0;whiteSpace=wrap;html=1;" parent="1" vertex="1">
          <mxGeometry x="1140" y="-2120" width="380" height="80" as="geometry" />
        </mxCell>
        <mxCell id="p8tNbYULgPMOV_2-hKJk-24" value="&lt;font style=&quot;font-size: 20px;&quot;&gt;VM3 :Heart_Orchestrator&lt;/font&gt;" style="rounded=0;whiteSpace=wrap;html=1;" parent="1" vertex="1">
          <mxGeometry x="2360" y="-2370" width="370" height="80" as="geometry" />
        </mxCell>
        <mxCell id="BvD41wCdSYZ7Jo7oAfta-1" value="&lt;font style=&quot;font-size: 30px;&quot;&gt;Ubuntu Host OS&lt;/font&gt;" style="rounded=0;whiteSpace=wrap;html=1;" parent="1" vertex="1">
          <mxGeometry x="555" y="-4640" width="1080" height="80" as="geometry" />
        </mxCell>
        <mxCell id="BvD41wCdSYZ7Jo7oAfta-2" value="&lt;font style=&quot;font-size: 30px;&quot;&gt;Qemu/KVM&lt;/font&gt;" style="rounded=0;whiteSpace=wrap;html=1;" parent="1" vertex="1">
          <mxGeometry x="-215" y="-4010" width="800" height="120" as="geometry" />
        </mxCell>
        <mxCell id="BvD41wCdSYZ7Jo7oAfta-3" value="&lt;span style=&quot;font-size: 30px;&quot;&gt;Libvirt Network&lt;/span&gt;" style="rounded=0;whiteSpace=wrap;html=1;" parent="1" vertex="1">
          <mxGeometry x="1910" y="-4010" width="720" height="130" as="geometry" />
        </mxCell>
        <mxCell id="BvD41wCdSYZ7Jo7oAfta-18" value="Domain Controller" style="text;html=1;align=center;verticalAlign=middle;resizable=0;points=[];autosize=1;strokeColor=none;fillColor=none;" parent="1" vertex="1">
          <mxGeometry x="-1110" y="270" width="120" height="30" as="geometry" />
        </mxCell>
        <mxCell id="BvD41wCdSYZ7Jo7oAfta-19" value="CDN" style="text;html=1;align=center;verticalAlign=middle;resizable=0;points=[];autosize=1;strokeColor=none;fillColor=none;" parent="1" vertex="1">
          <mxGeometry x="-390" y="90" width="50" height="30" as="geometry" />
        </mxCell>
        <mxCell id="BvD41wCdSYZ7Jo7oAfta-20" value="CDN" style="text;html=1;align=center;verticalAlign=middle;resizable=0;points=[];autosize=1;strokeColor=none;fillColor=none;" parent="1" vertex="1">
          <mxGeometry x="-340" y="710" width="50" height="30" as="geometry" />
        </mxCell>
        <mxCell id="BvD41wCdSYZ7Jo7oAfta-21" value="BMS" style="text;html=1;align=center;verticalAlign=middle;resizable=0;points=[];autosize=1;strokeColor=none;fillColor=none;" parent="1" vertex="1">
          <mxGeometry x="2495" y="858" width="50" height="30" as="geometry" />
        </mxCell>
        <mxCell id="BvD41wCdSYZ7Jo7oAfta-22" value="DNS to EVery Main Server" style="text;html=1;align=center;verticalAlign=middle;resizable=0;points=[];autosize=1;strokeColor=none;fillColor=none;" parent="1" vertex="1">
          <mxGeometry x="-1440" y="378" width="170" height="30" as="geometry" />
        </mxCell>
        <mxCell id="BvD41wCdSYZ7Jo7oAfta-23" value="Logging for Every Server" style="text;html=1;align=center;verticalAlign=middle;resizable=0;points=[];autosize=1;strokeColor=none;fillColor=none;" parent="1" vertex="1">
          <mxGeometry x="-1425" y="1048" width="160" height="30" as="geometry" />
        </mxCell>
        <mxCell id="BvD41wCdSYZ7Jo7oAfta-30" value="DMS" style="text;html=1;align=center;verticalAlign=middle;resizable=0;points=[];autosize=1;strokeColor=none;fillColor=none;" parent="1" vertex="1">
          <mxGeometry x="230" y="-580" width="50" height="30" as="geometry" />
        </mxCell>
        <mxCell id="BvD41wCdSYZ7Jo7oAfta-45" style="edgeStyle=orthogonalEdgeStyle;rounded=0;orthogonalLoop=1;jettySize=auto;html=1;exitX=0.5;exitY=0;exitDx=0;exitDy=0;" parent="1" source="BvD41wCdSYZ7Jo7oAfta-36" edge="1">
          <mxGeometry relative="1" as="geometry">
            <mxPoint x="1925" y="-3160" as="targetPoint" />
          </mxGeometry>
        </mxCell>
        <mxCell id="BvD41wCdSYZ7Jo7oAfta-36" value="&lt;span style=&quot;font-size: 30px;&quot;&gt;guest_network&lt;/span&gt;" style="rounded=0;whiteSpace=wrap;html=1;" parent="1" vertex="1">
          <mxGeometry x="1535" y="-2790" width="780" height="130" as="geometry" />
        </mxCell>
        <mxCell id="BvD41wCdSYZ7Jo7oAfta-42" style="edgeStyle=orthogonalEdgeStyle;rounded=0;orthogonalLoop=1;jettySize=auto;html=1;exitX=0.5;exitY=0;exitDx=0;exitDy=0;entryX=0.5;entryY=1;entryDx=0;entryDy=0;" parent="1" source="BvD41wCdSYZ7Jo7oAfta-37" target="BvD41wCdSYZ7Jo7oAfta-3" edge="1">
          <mxGeometry relative="1" as="geometry">
            <Array as="points">
              <mxPoint x="4420" y="-2790" />
              <mxPoint x="4420" y="-3170" />
              <mxPoint x="2270" y="-3170" />
            </Array>
          </mxGeometry>
        </mxCell>
        <mxCell id="BvD41wCdSYZ7Jo7oAfta-37" value="&lt;span style=&quot;font-size: 30px;&quot;&gt;staff_network&lt;/span&gt;" style="rounded=0;whiteSpace=wrap;html=1;" parent="1" vertex="1">
          <mxGeometry x="4000" y="-2790" width="780" height="130" as="geometry" />
        </mxCell>
        <mxCell id="BvD41wCdSYZ7Jo7oAfta-46" style="edgeStyle=orthogonalEdgeStyle;rounded=0;orthogonalLoop=1;jettySize=auto;html=1;exitX=0.5;exitY=0;exitDx=0;exitDy=0;" parent="1" source="BvD41wCdSYZ7Jo7oAfta-38" edge="1">
          <mxGeometry relative="1" as="geometry">
            <mxPoint x="3135" y="-3160" as="targetPoint" />
          </mxGeometry>
        </mxCell>
        <mxCell id="BvD41wCdSYZ7Jo7oAfta-38" value="&lt;span style=&quot;font-size: 30px;&quot;&gt;dmz_network&lt;/span&gt;" style="rounded=0;whiteSpace=wrap;html=1;" parent="1" vertex="1">
          <mxGeometry x="2745" y="-2800" width="780" height="130" as="geometry" />
        </mxCell>
        <mxCell id="BvD41wCdSYZ7Jo7oAfta-43" style="edgeStyle=orthogonalEdgeStyle;rounded=0;orthogonalLoop=1;jettySize=auto;html=1;exitX=0.5;exitY=0;exitDx=0;exitDy=0;entryX=0.5;entryY=1;entryDx=0;entryDy=0;" parent="1" source="BvD41wCdSYZ7Jo7oAfta-39" target="BvD41wCdSYZ7Jo7oAfta-3" edge="1">
          <mxGeometry relative="1" as="geometry">
            <Array as="points">
              <mxPoint x="-795" y="-3170" />
              <mxPoint x="2270" y="-3170" />
            </Array>
          </mxGeometry>
        </mxCell>
        <mxCell id="BvD41wCdSYZ7Jo7oAfta-39" value="&lt;span style=&quot;font-size: 30px;&quot;&gt;iot_network&lt;/span&gt;" style="rounded=0;whiteSpace=wrap;html=1;" parent="1" vertex="1">
          <mxGeometry x="-1185" y="-2800" width="780" height="130" as="geometry" />
        </mxCell>
        <mxCell id="BvD41wCdSYZ7Jo7oAfta-44" style="edgeStyle=orthogonalEdgeStyle;rounded=0;orthogonalLoop=1;jettySize=auto;html=1;exitX=0.5;exitY=0;exitDx=0;exitDy=0;" parent="1" source="BvD41wCdSYZ7Jo7oAfta-40" edge="1">
          <mxGeometry relative="1" as="geometry">
            <mxPoint x="535" y="-3160" as="targetPoint" />
          </mxGeometry>
        </mxCell>
        <mxCell id="BvD41wCdSYZ7Jo7oAfta-40" value="&lt;font style=&quot;font-size: 30px;&quot;&gt;management_network&lt;/font&gt;" style="rounded=0;whiteSpace=wrap;html=1;" parent="1" vertex="1">
          <mxGeometry x="145" y="-2800" width="780" height="130" as="geometry" />
        </mxCell>
        <mxCell id="BvD41wCdSYZ7Jo7oAfta-57" style="edgeStyle=orthogonalEdgeStyle;rounded=0;orthogonalLoop=1;jettySize=auto;html=1;exitX=0.5;exitY=1;exitDx=0;exitDy=0;" parent="1" source="BvD41wCdSYZ7Jo7oAfta-48" edge="1">
          <mxGeometry relative="1" as="geometry">
            <mxPoint x="550" y="-780" as="targetPoint" />
          </mxGeometry>
        </mxCell>
        <mxCell id="BvD41wCdSYZ7Jo7oAfta-59" style="edgeStyle=orthogonalEdgeStyle;rounded=0;orthogonalLoop=1;jettySize=auto;html=1;exitX=0.75;exitY=1;exitDx=0;exitDy=0;" parent="1" source="BvD41wCdSYZ7Jo7oAfta-48" edge="1">
          <mxGeometry relative="1" as="geometry">
            <mxPoint x="3050" y="-1180" as="targetPoint" />
            <Array as="points">
              <mxPoint x="195" y="-1180" />
            </Array>
          </mxGeometry>
        </mxCell>
        <mxCell id="BvD41wCdSYZ7Jo7oAfta-48" value="&lt;span style=&quot;font-size: 30px;&quot;&gt;BMS-WebApp&lt;/span&gt;" style="rounded=0;whiteSpace=wrap;html=1;" parent="1" vertex="1">
          <mxGeometry x="-390" y="-1480" width="780" height="130" as="geometry" />
        </mxCell>
        <mxCell id="BvD41wCdSYZ7Jo7oAfta-58" style="edgeStyle=orthogonalEdgeStyle;rounded=0;orthogonalLoop=1;jettySize=auto;html=1;exitX=0.5;exitY=1;exitDx=0;exitDy=0;entryX=1;entryY=1;entryDx=0;entryDy=0;" parent="1" source="BvD41wCdSYZ7Jo7oAfta-49" target="p8tNbYULgPMOV_2-hKJk-19" edge="1">
          <mxGeometry relative="1" as="geometry">
            <mxPoint x="2870" y="1590" as="targetPoint" />
            <Array as="points">
              <mxPoint x="1330" y="-990" />
              <mxPoint x="5330" y="-990" />
              <mxPoint x="5330" y="3175" />
              <mxPoint x="2870" y="3175" />
              <mxPoint x="2870" y="1620" />
            </Array>
          </mxGeometry>
        </mxCell>
        <mxCell id="BvD41wCdSYZ7Jo7oAfta-49" value="&lt;span style=&quot;font-size: 30px;&quot;&gt;Public-WebApp&lt;/span&gt;" style="rounded=0;whiteSpace=wrap;html=1;" parent="1" vertex="1">
          <mxGeometry x="940" y="-1480" width="780" height="130" as="geometry" />
        </mxCell>
        <mxCell id="BvD41wCdSYZ7Jo7oAfta-55" style="edgeStyle=orthogonalEdgeStyle;rounded=0;orthogonalLoop=1;jettySize=auto;html=1;exitX=1;exitY=1;exitDx=0;exitDy=0;entryX=1;entryY=0.5;entryDx=0;entryDy=0;" parent="1" source="BvD41wCdSYZ7Jo7oAfta-50" target="p8tNbYULgPMOV_2-hKJk-14" edge="1">
          <mxGeometry relative="1" as="geometry">
            <mxPoint x="5280" y="1590" as="targetPoint" />
            <Array as="points">
              <mxPoint x="3060" y="-1120" />
              <mxPoint x="5080" y="-1120" />
              <mxPoint x="5080" y="1595" />
            </Array>
          </mxGeometry>
        </mxCell>
        <mxCell id="BvD41wCdSYZ7Jo7oAfta-50" value="&lt;span style=&quot;font-size: 30px;&quot;&gt;Staff-WebApp&lt;/span&gt;" style="rounded=0;whiteSpace=wrap;html=1;" parent="1" vertex="1">
          <mxGeometry x="2280" y="-1480" width="780" height="130" as="geometry" />
        </mxCell>
        <mxCell id="Gq6xyrAA6HJIPoT7wWtw-10" style="edgeStyle=orthogonalEdgeStyle;rounded=0;orthogonalLoop=1;jettySize=auto;html=1;exitX=0;exitY=0.5;exitDx=0;exitDy=0;entryX=1;entryY=0.25;entryDx=0;entryDy=0;" edge="1" parent="1" source="Gq6xyrAA6HJIPoT7wWtw-9" target="p8tNbYULgPMOV_2-hKJk-19">
          <mxGeometry relative="1" as="geometry">
            <mxPoint x="3040" y="1560" as="targetPoint" />
            <Array as="points">
              <mxPoint x="3041" y="2275" />
              <mxPoint x="3041" y="1553" />
            </Array>
          </mxGeometry>
        </mxCell>
        <mxCell id="Gq6xyrAA6HJIPoT7wWtw-11" style="edgeStyle=orthogonalEdgeStyle;rounded=0;orthogonalLoop=1;jettySize=auto;html=1;exitX=0.5;exitY=1;exitDx=0;exitDy=0;" edge="1" parent="1" source="Gq6xyrAA6HJIPoT7wWtw-9">
          <mxGeometry relative="1" as="geometry">
            <mxPoint x="3614.666666666668" y="3000" as="targetPoint" />
          </mxGeometry>
        </mxCell>
        <mxCell id="Gq6xyrAA6HJIPoT7wWtw-9" value="&lt;span style=&quot;font-size: 20px;&quot;&gt;Reverse_Proxy_Load_Balancer&lt;/span&gt;" style="rounded=0;whiteSpace=wrap;html=1;" vertex="1" parent="1">
          <mxGeometry x="3430" y="2230" width="370" height="90" as="geometry" />
        </mxCell>
        <mxCell id="Gq6xyrAA6HJIPoT7wWtw-15" style="edgeStyle=orthogonalEdgeStyle;rounded=0;orthogonalLoop=1;jettySize=auto;html=1;exitX=0.5;exitY=0;exitDx=0;exitDy=0;entryX=0.5;entryY=1;entryDx=0;entryDy=0;" edge="1" parent="1" source="Gq6xyrAA6HJIPoT7wWtw-12" target="BvD41wCdSYZ7Jo7oAfta-3">
          <mxGeometry relative="1" as="geometry">
            <mxPoint x="2275" y="-3900" as="targetPoint" />
            <Array as="points">
              <mxPoint x="-2120" y="-3170" />
              <mxPoint x="2270" y="-3170" />
            </Array>
          </mxGeometry>
        </mxCell>
        <mxCell id="Gq6xyrAA6HJIPoT7wWtw-12" value="&lt;span style=&quot;font-size: 30px;&quot;&gt;BMS_network&lt;/span&gt;" style="rounded=0;whiteSpace=wrap;html=1;" vertex="1" parent="1">
          <mxGeometry x="-2510" y="-2790" width="780" height="130" as="geometry" />
        </mxCell>
        <mxCell id="Gq6xyrAA6HJIPoT7wWtw-14" style="edgeStyle=orthogonalEdgeStyle;rounded=0;orthogonalLoop=1;jettySize=auto;html=1;exitX=0.5;exitY=0;exitDx=0;exitDy=0;entryX=0.5;entryY=1;entryDx=0;entryDy=0;" edge="1" parent="1" source="Gq6xyrAA6HJIPoT7wWtw-13" target="BvD41wCdSYZ7Jo7oAfta-3">
          <mxGeometry relative="1" as="geometry">
            <Array as="points">
              <mxPoint x="5650" y="-3170" />
              <mxPoint x="2270" y="-3170" />
            </Array>
          </mxGeometry>
        </mxCell>
        <mxCell id="Gq6xyrAA6HJIPoT7wWtw-13" value="&lt;span style=&quot;font-size: 30px;&quot;&gt;core_network&lt;/span&gt;" style="rounded=0;whiteSpace=wrap;html=1;" vertex="1" parent="1">
          <mxGeometry x="5260" y="-2790" width="780" height="130" as="geometry" />
        </mxCell>
      </root>
    </mxGraphModel>
  </diagram>
  <diagram id="43q_7jz63-oaaSpvrvD6" name="Page-2">
    <mxGraphModel dx="1426" dy="919" grid="1" gridSize="10" guides="1" tooltips="1" connect="1" arrows="1" fold="1" page="1" pageScale="1" pageWidth="1200" pageHeight="1600" math="0" shadow="0">
      <root>
        <mxCell id="0" />
        <mxCell id="1" parent="0" />
      </root>
    </mxGraphModel>
  </diagram>
</mxfile>
